<svg xmlns="http://www.w3.org/2000/svg" viewBox="0 0 24 24" aria-hidden="true">
  <path fill="#c9d2de" d="M10.9 1.5h2.2l.9 2.6c.64.16 1.25.42 1.83.76l2.45-1.08 1.58 1.58-1.08 2.45c.34.58.6 1.19.76 1.83l2.56.9v2.22l-2.56.9a7.4 7.4 0 0 1-.76 1.83l1.08 2.45-1.58 1.58-2.45-1.08c-.58.34-1.19.6-1.83.76l-.9 2.56h-2.22l-.9-2.56a7.4 7.4 0 0 1-1.83-.76l-2.45 1.08-1.58-1.58 1.08-2.45a7.4 7.4 0 0 1-.76-1.83l-2.56-.9v-2.22l2.56-.9c.16-.64.42-1.25.76-1.83L3.84 5.42l1.58-1.58 2.45 1.08c.58-.34 1.19-.6 1.83-.76l.9-2.56Z"/>
  <path fill="#1f3448" d="M12 6.2a5.8 5.8 0 1 0 0 11.6 5.8 5.8 0 0 0 0-11.6Z"/>
  <path fill="#c9d2de" d="M11.2 6.8h1.6v3.4c0 .44-.36.8-.8.8h-.8V6.8Zm3.3 3.6H17v1.6h-2.5v3.3h-1.6v-4.1c0-.44.36-.8.8-.8ZM5.1 18.3a.85.85 0 0 1 0-1.2l2.44-2.44V12.6c0-.23.1-.45.25-.6l1.1-1.1a.85.85 0 0 1 1.2 1.2l-.85.85v2.03c0 .23-.1.45-.25.6l-2.7 2.7a.85.85 0 0 1-1.2 0Zm2.7 2.1a.85.85 0 0 1 0-1.2l3.62-3.62c.16-.16.38-.25.6-.25h1.26l1.1-1.1a.85.85 0 0 1 1.2 1.2l-1.35 1.35a.85.85 0 0 1-.6.25h-1.26l-3.37 3.37a.85.85 0 0 1-1.2 0Zm-3.2-5a.85.85 0 0 1 0-1.2l9.18-9.18a.85.85 0 0 1 1.2 1.2L5.8 15.44a.85.85 0 0 1-1.2 0Z"/>
  <circle cx="8.9" cy="9.2" r="1.15" fill="#c9d2de"/>
  <circle cx="14.8" cy="14.6" r="1.15" fill="#c9d2de"/>
</svg>
